<?xml version="1.0"?>
<svg xmlns="http://www.w3.org/2000/svg" viewBox="0 0 64 64" width="512" height="512"><g id="Coffee_machine" data-name="Coffee machine"><path d="M30,19H26a1,1,0,0,0,0,2h4a1,1,0,0,0,0-2Z"/><path d="M35,19H34a1,1,0,0,0,0,2h1a1,1,0,0,0,0-2Z"/><path d="M17,7a3,3,0,1,0-3,3A3,3,0,0,0,17,7ZM13,7a1,1,0,1,1,1,1A1,1,0,0,1,13,7Z"/><path d="M21,10a3,3,0,1,0-3-3A3,3,0,0,0,21,10Zm0-4a1,1,0,1,1-1,1A1,1,0,0,1,21,6Z"/><path d="M41,10h9a1,1,0,0,0,0-2H41a1,1,0,0,0,0,2Z"/><path d="M37,10h1a1,1,0,0,0,0-2H37a1,1,0,0,0,0,2Z"/><path d="M62,16H53V13h2a1,1,0,0,0,1-1V2a1,1,0,0,0-1-1H9A1,1,0,0,0,8,2V12a1,1,0,0,0,1,1h2V49H9a1,1,0,0,0-1,1v9a1,1,0,0,0,1,1h4v2a1,1,0,0,0,1,1h7a1,1,0,0,0,1-1V60H42v2a1,1,0,0,0,1,1h7a1,1,0,0,0,1-1V60h4a1,1,0,0,0,1-1V50a1,1,0,0,0-1-1H53V24h9a1,1,0,0,0,1-1V17A1,1,0,0,0,62,16ZM51,16H45a1,1,0,0,0-1,1H42V16a1,1,0,0,0-1-1H39V13H51ZM29,26h6v1H29Zm-5-2V17H40v7Zm3-11H37v2H27Zm15,6h2v1H42ZM10,3H54v8H10ZM20,61H15V60h5Zm29,0H44V60h5Zm5-3H10V51H54ZM40,37h3a1,1,0,0,1,1,1v3a1,1,0,0,1-1,1H40Zm-2,8a3,3,0,0,1-3,3H29a3,3,0,0,1-3-3V36H38Zm13,4H37.969A4.982,4.982,0,0,0,40,45V44h3a3,3,0,0,0,3-3V38a3,3,0,0,0-3-3H40a1,1,0,0,0-1-1H25a1,1,0,0,0-1,1V45a4.982,4.982,0,0,0,2.031,4H13V13H25v2H23a1,1,0,0,0-1,1v9a1,1,0,0,0,1,1h4v2a1,1,0,0,0,1,1h8a1,1,0,0,0,1-1V26h4a1,1,0,0,0,1-1V22h2v1a1,1,0,0,0,1,1h6ZM61,22H46V18H61Z"/><path d="M19,54H12a1,1,0,0,0,0,2h7a1,1,0,0,0,0-2Z"/><path d="M24,54H22a1,1,0,0,0,0,2h2a1,1,0,0,0,0-2Z"/></g></svg>
