<?xml version="1.0" encoding="utf-8"?>
<!-- Generator: Adobe Illustrator 23.0.3, SVG Export Plug-In . SVG Version: 6.00 Build 0)  -->
<svg version="1.1" id="Camada_1" xmlns="http://www.w3.org/2000/svg" xmlns:xlink="http://www.w3.org/1999/xlink" x="0px" y="0px"
	 viewBox="0 0 479 479" style="enable-background:new 0 0 479 479;" xml:space="preserve">
<g>
	<path d="M8,431.1h249.4c-1.2,2.5-1.9,5.2-1.9,8c0,13.4,14,24,31.9,24c17.9,0,31.9-10.5,31.9-24c0-13.4-14-24-31.9-24
		c-0.1,0-0.3,0-0.4,0l-1-19.8c5.4,2.6,11.4,3.9,17.4,3.8c17.9,0,31.9-10.5,31.9-24c0-13.4-14-24-31.9-24c-6.8-0.1-13.5,1.6-19.5,5
		l-12.5-236.9c-0.1-1.1-0.3-2.2-0.8-3.1l-23.2-46.2v-46c0-4.4-3.6-8-8-8H47.9c-4.4,0-8,3.6-8,8v46l-23.1,46.2
		c-0.5,1-0.7,2.1-0.8,3.1L0,422.7c-0.1,2.2,0.7,4.3,2.2,5.9C3.7,430.2,5.8,431.1,8,431.1z M303.4,367.2c9.7,0,16,4.7,16,8
		c0,3.3-6.2,8-16,8c-9.7,0-16-4.7-16-8C287.4,372,293.6,367.2,303.4,367.2z M303.4,439.1c0,3.3-6.2,8-16,8c-9.7,0-16-4.7-16-8
		c0-3.3,6.2-8,16-8C297.1,431.1,303.4,435.8,303.4,439.1z M55.9,31.9h52.6L98.1,42.2l11.3,11.3L131,31.9h17.3L138,42.2l11.3,11.3
		l21.6-21.6h60.6v31.9H55.9V31.9z M31.5,127.7h64.3v-16H36.8l16-31.9h181.7l16,31.9h-43v16h48.3L271,415.1H16.4L31.5,127.7z"/>
	<path d="M175.6,111.7h16v16h-16V111.7z"/>
	<path d="M39.9,351.3v47.9h207.6v-47.9H39.9z M231.5,383.2H55.9v-16h175.6V383.2z"/>
	<path d="M143.7,335.3c52.9,0,95.8-42.9,95.8-95.8s-42.9-95.8-95.8-95.8s-95.8,42.9-95.8,95.8C47.9,292.4,90.8,335.2,143.7,335.3z
		 M143.7,159.6c44.1,0,79.8,35.7,79.8,79.8c0,44.1-35.7,79.8-79.8,79.8c-44.1,0-79.8-35.7-79.8-79.8
		C63.9,195.4,99.6,159.7,143.7,159.6z"/>
	<path d="M447.1,415.1c-17.9,0-31.9,10.5-31.9,24c0,13.4,14,24,31.9,24c17.9,0,31.9-10.5,31.9-24C479,425.7,465,415.1,447.1,415.1z
		 M447.1,447.1c-9.7,0-16-4.7-16-8c0-3.3,6.2-8,16-8c9.7,0,16,4.7,16,8C463,442.3,456.8,447.1,447.1,447.1z"/>
	<path d="M327.3,399.2c0,13.4,14,24,31.9,24c17.9,0,31.9-10.5,31.9-24c0-13.4-14-24-31.9-24C341.3,375.2,327.3,385.7,327.3,399.2z
		 M375.2,399.2c0,3.3-6.2,8-16,8c-9.7,0-16-4.7-16-8c0-3.3,6.2-8,16-8C369,391.2,375.2,395.9,375.2,399.2z"/>
	<path d="M447.1,351.3c-17.9,0-31.9,10.5-31.9,24c0,13.4,14,24,31.9,24c17.9,0,31.9-10.5,31.9-24C479,361.8,465,351.3,447.1,351.3z
		 M447.1,383.2c-9.7,0-16-4.7-16-8c0-3.3,6.2-8,16-8c9.7,0,16,4.7,16,8C463,378.5,456.8,383.2,447.1,383.2z"/>
	<path d="M143.7,303.4c26.4,0,47.9-28.7,47.9-63.9c0-35.2-21.5-63.9-47.9-63.9c-26.4,0-47.9,28.7-47.9,63.9
		C95.8,274.7,117.3,303.4,143.7,303.4z M175.6,239.5c0,26-14.6,47.9-31.9,47.9c-7-0.3-13.6-3.5-18.1-8.8c21.3-9.7,26.1-22,26.1-31.1
		c0-19.8,1.4-33.5,16.3-38.7C173.1,218.2,175.7,228.7,175.6,239.5z M143.7,191.6c4.8,0.1,9.4,1.7,13.2,4.5
		c-21.1,11-21.2,35.7-21.2,51.4c0,8-10.5,13.9-18.9,17.5c-3.4-8.1-5.1-16.7-5.1-25.4C111.7,213.5,126.4,191.6,143.7,191.6z"/>
</g>
</svg>
