<svg id="Layer_5" enable-background="new 0 0 64 64" height="512" viewBox="0 0 64 64" width="512" xmlns="http://www.w3.org/2000/svg"><path d="m32 25c-.551 0-1-.449-1-1h-2c0 1.302.839 2.402 2 2.816v2.184h2v-2h2v-3c0-1.654-1.346-3-3-3-.551 0-1-.449-1-1v-1h1c.551 0 1 .449 1 1h2c0-1.302-.839-2.402-2-2.816v-2.184h-2v2h-2v3c0 1.654 1.346 3 3 3 .551 0 1 .449 1 1v1z"/><circle cx="38" cy="22" r="1"/><circle cx="26" cy="22" r="1"/><path d="m32 35c7.168 0 13-5.832 13-13s-5.832-13-13-13-13 5.832-13 13 5.832 13 13 13zm0-24c6.065 0 11 4.935 11 11s-4.935 11-11 11-11-4.935-11-11 4.935-11 11-11z"/><path d="m17 1v13.017c-1.273 2.382-2 5.098-2 7.983 0 3.3.96 6.373 2.594 8.983l-2.595 2.602-.999-.999-11.464 11.464c-.991.99-1.536 2.306-1.536 3.708 0 2.89 2.352 5.242 5.243 5.242 1.399 0 2.716-.545 3.707-1.535l7.05-7.051v18.586h46v-62zm15 6c8.271 0 15 6.729 15 15s-6.729 15-15 15-15-6.729-15-15 6.729-15 15-15zm-13.237 25.643c.768.954 1.636 1.822 2.589 2.591l-2.352 2.352-2.587-2.587zm-10.227 17.407c-.613.613-1.428.95-2.293.95-1.788 0-3.243-1.454-3.243-3.242 0-.867.337-1.681.95-2.293l10.05-10.051 4.586 4.586zm52.464 10.95h-42v-18.586l2.414-2.414-1-1 2.597-2.597c2.612 1.636 5.687 2.597 8.989 2.597 9.374 0 17-7.626 17-17s-7.626-17-17-17c-5.212 0-9.879 2.363-13 6.068v-8.068h42z"/><path d="m53 57h-2v-22h-6v22h-2v-18h-6v18h-2v-14h-6v14h-2v-10h-6v12h38v-28h-6zm-28 0h-2v-8h2zm22-20h2v20h-2zm-8 4h2v16h-2zm-8 4h2v12h-2zm24-12h2v24h-2z"/><path d="m43 5h2v2h-2z"/><path d="m47 5h12v2h-12z"/><path d="m51 9h8v2h-8z"/><path d="m51 13h8v2h-8z"/><path d="m51 17h8v2h-8z"/><path d="m51 21h8v2h-8z"/><path d="m51 25h8v2h-8z"/></svg>