<svg height="512" viewBox="0 0 52 60" width="512" xmlns="http://www.w3.org/2000/svg"><g id="005---Budget-Sheet"><path id="Shape" d="m5 60h42c2.7600532-.0033061 4.9966939-2.2399468 5-5v-50c-.0033061-2.76005315-2.2399468-4.99669388-5-5h-42c-2.76005315.00330612-4.99669388 2.23994685-5 5v50c.00330612 2.7600532 2.23994685 4.9966939 5 5zm41-13.909v7.909h-11.613c5.23-1.691 9.161-4.374 11.613-7.909zm-20.716 7.693c3.564-1.955 7.85-5.288 8.6-10.245 2.224.975 6.743 2.524 10.663 1.153-4.324 6.554-13.447 8.518-19.263 9.092zm20.716-20.784c-.5522847 0-1 .4477153-1 1s.4477153 1 1 1v6.537c-4.465 3.949-12.433-.366-12.515-.412-.3098187-.1718235-.6874242-.1668962-.992654.012953s-.4925181.5077718-.492346.862047c0 7.693-10.838 11.558-12.159 12h-13.841v-19c.55228475 0 1-.4477153 1-1s-.44771525-1-1-1v-27h6v1c0 1.65685425 1.3431458 3 3 3h22c1.6568542 0 3-1.34314575 3-3v-1h6zm-8-31v5c0 .55228475-.4477153 1-1 1h-2v-2c0-.55228475-.4477153-1-1-1s-1 .44771525-1 1v2h-14v-2c0-.55228475-.4477153-1-1-1s-1 .44771525-1 1v2h-2c-.5522847 0-1-.44771525-1-1v-5zm-36 3c0-1.65685425 1.34314575-3 3-3h7v2h-6c-1.1045695 0-2 .8954305-2 2v48c0 1.1045695.8954305 2 2 2 17.146 0 15.328.02 16.083 0h23.917c1.1045695 0 2-.8954305 2-2v-48c0-1.1045695-.8954305-2-2-2h-6v-2h7c1.6568542 0 3 1.34314575 3 3v50c0 1.6568542-1.3431458 3-3 3h-42c-1.65685425 0-3-1.3431458-3-3z"/><path id="Shape" d="m12.949 25.749c-.1038233-.4407614-.4971757-.7522233-.95-.7522233s-.8461767.3114619-.95.7522233c-.6443848-.3460577-1.0471408-1.0175738-1.049-1.749 0-.5522847-.44771525-1-1-1s-1 .4477153-1 1c.00681482 1.8184116 1.23931486 3.4034067 3 3.858v1.142c0 .5522847.4477153 1 1 1s1-.4477153 1-1v-1.142c1.9482742-.5014457 3.2190002-2.3742805 2.9650329-4.3699561-.2539674-1.9956755-1.953264-3.4905487-3.9650329-3.4880439-.9077244-.0094658-1.6952294-.6290858-1.9179918-1.5091029-.22276241-.8800171.1750943-1.7996927.9689918-2.2398971.1038233.4407614.4971757.7522233.95.7522233s.8461767-.3114619.95-.7522233c.6443848.3460577 1.0471408 1.0175738 1.049 1.749 0 .5522847.4477153 1 1 1s1-.4477153 1-1c-.0068148-1.8184116-1.2393149-3.4034067-3-3.858v-1.142c0-.5522847-.4477153-1-1-1s-1 .4477153-1 1v1.142c-1.94827423.5014457-3.21900023 2.3742805-2.96503286 4.3699561.25396736 1.9956755 1.95326398 3.4905487 3.96503286 3.4880439.9077244.0094658 1.6952294.6290858 1.9179918 1.5091029s-.1750943 1.7996927-.9689918 2.2398971z"/><path id="Shape" d="m20 17h2c.5522847 0 1-.4477153 1-1s-.4477153-1-1-1h-2c-.5522847 0-1 .4477153-1 1s.4477153 1 1 1z"/><path id="Shape" d="m20 22h2c.5522847 0 1-.4477153 1-1s-.4477153-1-1-1h-2c-.5522847 0-1 .4477153-1 1s.4477153 1 1 1z"/><path id="Shape" d="m20 27h2c.5522847 0 1-.4477153 1-1s-.4477153-1-1-1h-2c-.5522847 0-1 .4477153-1 1s.4477153 1 1 1z"/><path id="Shape" d="m29 17h2c.5522847 0 1-.4477153 1-1s-.4477153-1-1-1h-2c-.5522847 0-1 .4477153-1 1s.4477153 1 1 1z"/><path id="Shape" d="m35 17h3c.5522847 0 1-.4477153 1-1s-.4477153-1-1-1h-3c-.5522847 0-1 .4477153-1 1s.4477153 1 1 1z"/><path id="Shape" d="m42 17h1c.5522847 0 1-.4477153 1-1s-.4477153-1-1-1h-1c-.5522847 0-1 .4477153-1 1s.4477153 1 1 1z"/><path id="Shape" d="m29 22h7c.5522847 0 1-.4477153 1-1s-.4477153-1-1-1h-7c-.5522847 0-1 .4477153-1 1s.4477153 1 1 1z"/><path id="Shape" d="m43 20h-3c-.5522847 0-1 .4477153-1 1s.4477153 1 1 1h3c.5522847 0 1-.4477153 1-1s-.4477153-1-1-1z"/><path id="Shape" d="m34 26c0-.5522847-.4477153-1-1-1h-4c-.5522847 0-1 .4477153-1 1s.4477153 1 1 1h4c.5522847 0 1-.4477153 1-1z"/><path id="Shape" d="m43 25h-6c-.5522847 0-1 .4477153-1 1s.4477153 1 1 1h6c.5522847 0 1-.4477153 1-1s-.4477153-1-1-1z"/><path id="Shape" d="m12 33h-2c-.55228475 0-1 .4477153-1 1s.44771525 1 1 1h2c.5522847 0 1-.4477153 1-1s-.4477153-1-1-1z"/><path id="Shape" d="m15 34c0 .5522847.4477153 1 1 1h2c.5522847 0 1-.4477153 1-1s-.4477153-1-1-1h-2c-.5522847 0-1 .4477153-1 1z"/><path id="Shape" d="m21 34c0 .5522847.4477153 1 1 1h2c.5522847 0 1-.4477153 1-1s-.4477153-1-1-1h-2c-.5522847 0-1 .4477153-1 1z"/><path id="Shape" d="m30 33h-2c-.5522847 0-1 .4477153-1 1s.4477153 1 1 1h2c.5522847 0 1-.4477153 1-1s-.4477153-1-1-1z"/><path id="Shape" d="m36 33h-2c-.5522847 0-1 .4477153-1 1s.4477153 1 1 1h2c.5522847 0 1-.4477153 1-1s-.4477153-1-1-1z"/><path id="Shape" d="m42 33h-2c-.5522847 0-1 .4477153-1 1s.4477153 1 1 1h2c.5522847 0 1-.4477153 1-1s-.4477153-1-1-1z"/><path id="Shape" d="m28 42h-17c-1.65685425 0-3 1.3431458-3 3v2c0 1.6568542 1.34314575 3 3 3h12c.5522847 0 1-.4477153 1-1s-.4477153-1-1-1h-12c-.5522847 0-1-.4477153-1-1v-2c0-.5522847.4477153-1 1-1h17c.5522847 0 1-.4477153 1-1s-.4477153-1-1-1z"/></g></svg>